<svg width="40" height="40" viewBox="0 0 40 40" fill="none" xmlns="http://www.w3.org/2000/svg">
<path d="M6.6665 36.6667H29.9998C30.8839 36.6667 31.7317 36.3155 32.3569 35.6904C32.982 35.0652 33.3332 34.2174 33.3332 33.3333V12.5L24.1665 3.33334H9.99984C9.11578 3.33334 8.26794 3.68453 7.64281 4.30965C7.01769 4.93477 6.6665 5.78261 6.6665 6.66667V11.6667" stroke="#5F5F76" stroke-width="2" stroke-linecap="round" stroke-linejoin="round"/>
<path d="M23.3335 3.33334V13.3333H33.3335" stroke="#5F5F76" stroke-width="2" stroke-linecap="round" stroke-linejoin="round"/>
<path d="M8.3335 28.3333C8.99011 28.3333 9.64029 28.204 10.2469 27.9527C10.8535 27.7015 11.4047 27.3332 11.869 26.8689C12.3333 26.4046 12.7016 25.8534 12.9529 25.2468C13.2042 24.6401 13.3335 23.9899 13.3335 23.3333C13.3335 22.6767 13.2042 22.0265 12.9529 21.4199C12.7016 20.8133 12.3333 20.2621 11.869 19.7978C11.4047 19.3335 10.8535 18.9652 10.2469 18.7139C9.64029 18.4627 8.99011 18.3333 8.3335 18.3333C7.00741 18.3333 5.73564 18.8601 4.79796 19.7978C3.86028 20.7355 3.3335 22.0073 3.3335 23.3333C3.3335 24.6594 3.86028 25.9312 4.79796 26.8689C5.73564 27.8066 7.00741 28.3333 8.3335 28.3333Z" stroke="#5F5F76" stroke-width="2" stroke-linecap="round" stroke-linejoin="round"/>
<path d="M15 30L12.5 27.5" stroke="#5F5F76" stroke-width="2" stroke-linecap="round" stroke-linejoin="round"/>
</svg>
